<svg width="64" height="64" viewBox="0 0 64 64" fill="none" xmlns="http://www.w3.org/2000/svg">
<path d="M64 32C64 38.329 62.1232 44.5159 58.607 49.7782C55.0908 55.0406 50.0931 59.1421 44.2459 61.5641C38.3986 63.9861 31.9645 64.6199 25.7571 63.3851C19.5497 62.1504 13.8479 59.1027 9.37258 54.6274C4.8973 50.1521 1.8496 44.4503 0.614871 38.2429C-0.619856 32.0355 0.0138508 25.6014 2.43586 19.7541C4.85786 13.9069 8.95938 8.90918 14.2218 5.39297C19.4841 1.87677 25.671 -7.54726e-08 32 0L32 6.23553C26.9043 6.23553 21.923 7.74659 17.686 10.5776C13.4491 13.4087 10.1468 17.4325 8.19673 22.1404C6.24668 26.8482 5.73645 32.0286 6.73058 37.0264C7.72471 42.0242 10.1785 46.615 13.7818 50.2182C17.385 53.8215 21.9758 56.2753 26.9736 57.2694C31.9714 58.2635 37.1518 57.7533 41.8596 55.8033C46.5675 53.8532 50.5913 50.5509 53.4224 46.314C56.2534 42.077 57.7645 37.0957 57.7645 32H64Z" fill="#6A994E"/>
</svg>
