<svg width="64" height="64" viewBox="0 0 64 64" fill="none" xmlns="http://www.w3.org/2000/svg">
<rect width="64" height="64" fill="#1E1E1E"/>
<rect width="393" height="852" transform="translate(-164 -666)" fill="#F2E8CF"/>
<rect x="-164" y="-568" width="393" height="646" rx="38" fill="#A7C957"/>
<path d="M64 32C64 38.329 62.1232 44.5159 58.607 49.7782C55.0908 55.0406 50.0931 59.1421 44.2459 61.5641C38.3986 63.9861 31.9645 64.6199 25.7571 63.3851C19.5497 62.1504 13.8479 59.1027 9.37258 54.6274C4.8973 50.1521 1.8496 44.4503 0.614871 38.2429C-0.619856 32.0355 0.0138508 25.6014 2.43586 19.7541C4.85786 13.9069 8.95938 8.90918 14.2218 5.39297C19.4841 1.87677 25.671 -7.54726e-08 32 0L32 6.23553C26.9043 6.23553 21.923 7.74659 17.686 10.5776C13.4491 13.4087 10.1468 17.4325 8.19673 22.1404C6.24668 26.8482 5.73645 32.0286 6.73058 37.0264C7.72471 42.0242 10.1785 46.615 13.7818 50.2182C17.385 53.8215 21.9758 56.2753 26.9736 57.2694C31.9714 58.2635 37.1518 57.7533 41.8596 55.8033C46.5675 53.8532 50.5913 50.5509 53.4224 46.314C56.2534 42.077 57.7645 37.0957 57.7645 32H64Z" fill="#6A994E"/>
<path d="M31.5 9C19.0931 9 9 19.0931 9 31.5C10.1306 61.3088 52.875 61.3013 54 31.5C54 19.0931 43.9069 9 31.5 9ZM33.375 40.875V42.75C33.3656 45.2025 29.6344 45.2006 29.625 42.75V40.875H29.1225C27.1219 40.875 25.2544 39.7988 24.2512 38.0644C23.7319 37.1663 24.0394 36.0206 24.9338 35.5031C25.8319 34.98 26.9794 35.2913 27.495 36.1856C27.8306 36.7669 28.4531 37.125 29.1206 37.125H33.3731C35.2425 37.2469 36.0788 34.2188 34.0406 33.825L28.3388 32.8744C21.7725 31.6575 23.1862 22.0875 29.6231 22.125V20.25C29.6344 17.7975 33.3638 17.7994 33.3731 20.25V22.125H33.8756C35.8763 22.125 37.7437 23.2031 38.7469 24.9375C39.2662 25.8338 38.9587 26.9794 38.0644 27.4988C37.1644 28.0181 36.0188 27.7106 35.5031 26.8144C35.1675 26.235 34.545 25.8769 33.8775 25.8769H29.625C27.7556 25.755 26.9213 28.7831 28.9575 29.1769L34.6594 30.1275C41.2256 31.3444 39.8119 40.9125 33.375 40.875Z" fill="#6A994E"/>
</svg>
