<svg width="60" height="60" viewBox="0 0 60 60" fill="none" xmlns="http://www.w3.org/2000/svg">
<path d="M0.132702 38.4159C0.204185 37.9142 0.305084 37.4229 0.428955 36.9426L0.343056 36.9315C0.343056 36.9315 5.29727 23.7971 6.32864 19.1594C7.19231 15.6496 9.71524 12.8964 12.9216 11.6341C13.0033 11.3417 13.071 11.0782 13.1215 10.8532C13.8203 8.00846 16.5754 6.10077 19.5378 6.52018C22.4998 6.93971 24.6173 9.53776 24.499 12.4648C24.4752 12.8432 24.4444 13.3298 24.4094 13.883C26.6174 15.9878 27.9179 18.9876 27.788 22.1986C27.7825 22.2882 27.7768 22.3798 27.7713 22.475H32.2293C32.2238 22.3798 32.2182 22.2882 32.212 22.1986C32.0826 18.9875 33.3822 15.9878 35.5912 13.883C35.5561 13.3299 35.5252 12.8432 35.5014 12.4648C35.3833 9.53776 37.5003 6.93971 40.4628 6.52018C43.4248 6.10065 46.1802 8.00846 46.879 10.8532C46.9294 11.0783 46.9972 11.3417 47.079 11.6341C50.2852 12.8962 52.8081 15.6496 53.6719 19.1594C54.7033 23.7971 59.6575 36.9315 59.6575 36.9315L59.5716 36.9426C59.6954 37.4229 59.7963 37.9142 59.8673 38.4159C60.8944 45.6666 55.8482 52.378 48.5976 53.4048C41.347 54.4315 34.6359 49.3857 33.6092 42.1351C33.5382 41.6325 33.499 41.1336 33.4845 40.6376L33.3986 40.6507C33.3986 40.6507 33.3758 40.2957 33.3356 39.6819H26.665C26.6248 40.2957 26.602 40.6507 26.602 40.6507L26.5159 40.6376C26.5014 41.1336 26.4623 41.6325 26.3913 42.1351C25.3645 49.3857 18.6535 54.4315 11.4029 53.4048C4.15129 52.3781 -0.893978 45.6666 0.132702 38.4159ZM37.9851 41.5158C38.6704 46.3486 43.1439 49.7136 47.9781 49.0289C52.8119 48.3441 56.1756 43.869 55.4908 39.0363C54.8064 34.2026 50.3324 30.8384 45.4987 31.5231C40.6646 32.208 37.3008 36.6811 37.9851 41.5158ZM12.0223 49.0289C16.8565 49.7136 21.33 46.3486 22.0154 41.5158C22.6996 36.6811 19.336 32.208 14.5018 31.5231C9.66755 30.8384 5.19403 34.2024 4.50954 39.0363C3.82481 43.8691 7.18856 48.3442 12.0223 49.0289Z" fill="#708D6C"/>
</svg>
